<?xml version="1.0" encoding="UTF-8"?>
<svg width="178px" height="32px" viewBox="0 0 178 32" version="1.1" xmlns="http://www.w3.org/2000/svg" xmlns:xlink="http://www.w3.org/1999/xlink">
    <!-- Generator: Sketch 52.4 (67378) - http://www.bohemiancoding.com/sketch -->
    <title>logo</title>
    <desc>Created with Sketch.</desc>
    <g id="Services" stroke="none" stroke-width="1" fill="none" fill-rule="evenodd">
        <g id="services_our-services-1440" transform="translate(-130.000000, -23.000000)">
            <g id="header-/-industry">
                <g id="header">
                    <g id="logo" transform="translate(130.000000, 23.000000)">
                        <g id="logo-copy">
                            <path d="M50.2944006,24.6842619 C50.9397996,24.6842619 51.5056708,24.6249013 51.9851319,24.5092243 C52.4630636,24.3927862 52.9203487,24.2322082 53.3562224,24.0259682 L53.3562224,21.2344983 L51.4238488,21.2344983 C51.2395584,21.2344983 51.0919731,21.1835091 50.9872104,21.0830527 C50.8801537,20.977269 50.8258607,20.8524596 50.8258607,20.7040581 L50.8258607,19.0876235 L55.9607592,19.0876235 L55.9607592,25.2999378 C55.5669435,25.5853253 55.160128,25.8288559 54.7387834,26.0396621 C54.3151447,26.2466632 53.8639771,26.4232229 53.3829866,26.5541206 C52.9019961,26.6880625 52.3850652,26.7908019 51.84137,26.8570118 C51.2953808,26.9239828 50.7035101,26.9567072 50.0672874,26.9567072 C48.9439567,26.9567072 47.9108594,26.7634047 46.9641722,26.3745168 C46.0167204,25.9833457 45.1985012,25.4437731 44.5056914,24.7466667 C43.8182344,24.0571706 43.2806568,23.2261223 42.8921939,22.2641762 C42.5037309,21.3045133 42.3117936,20.2504823 42.3117936,19.1104545 C42.3117936,17.9552061 42.5014369,16.8943257 42.8776647,15.9339018 C43.2538926,14.9689116 43.7884114,14.1409075 44.4842801,13.4483672 C45.1747958,12.7543049 46.0167204,12.2162544 47.0054655,11.8342157 C47.9942107,11.450655 49.1068358,11.2603967 50.3333998,11.2603967 C51.5936102,11.2603967 52.6840592,11.4476108 53.607041,11.8197561 C54.5284934,12.1911403 55.3069486,12.6743964 55.9477595,13.2687634 L55.1157759,14.5632809 C54.9544262,14.8250764 54.7387834,14.9559741 54.4642594,14.9559741 C54.2914393,14.9559741 54.1209132,14.9011797 53.9442696,14.7862637 C53.7148624,14.6507997 53.4816317,14.519141 53.2453423,14.3851991 C53.0067588,14.2482132 52.7437051,14.1325361 52.4508286,14.0328408 C52.1671283,13.9331454 51.84137,13.8517148 51.4834947,13.7877881 C51.1248548,13.7238613 50.711157,13.695703 50.2378135,13.695703 C49.4761814,13.695703 48.7887244,13.8205125 48.1723837,14.0762197 C47.558337,14.3288827 47.0352885,14.6926566 46.6024735,15.1698244 C46.1665998,15.6439481 45.8316652,16.2116789 45.5953758,16.877583 C45.3629098,17.5434871 45.2459121,18.2870166 45.2459121,19.1104545 C45.2459121,19.9947751 45.372086,20.7839666 45.6198459,21.4765068 C45.8676057,22.1606757 46.2170694,22.7474324 46.6651781,23.220034 C47.1163457,23.6941577 47.6478058,24.0571706 48.2649113,24.3083115 C48.8843108,24.5594525 49.5625915,24.6842619 50.2944006,24.6842619 Z" id="Fill-1" fill="#4B4C4D"></path>
                            <path d="M58.3493282,26.2742589 L58.3493282,15.5557404 L59.8616438,15.5557404 C60.1247852,15.5557404 60.3086852,15.6036578 60.4140912,15.7017387 C60.5187497,15.7983221 60.5890205,15.9660329 60.6241558,16.2018763 L60.7789009,17.5001378 C61.1616521,16.8375303 61.6109361,16.3126852 62.1222677,15.9300949 C62.6388323,15.5467559 63.2174444,15.3550864 63.8566089,15.3550864 C64.3851344,15.3550864 64.8217099,15.4778747 65.173811,15.7204564 L64.8366611,17.6551205 C64.8142343,17.7809036 64.7708758,17.8670052 64.7035953,17.9216609 C64.6303343,17.9740706 64.5398795,17.9972805 64.4202697,17.9972805 C64.3148637,17.9972805 64.1720795,17.975568 63.9941601,17.9276506 C63.8102601,17.8759897 63.5717882,17.8542771 63.2727639,17.8542771 C62.7382579,17.8542771 62.2800031,18.0017728 61.8957568,18.2960155 C61.5115105,18.5925042 61.1908069,19.0267555 60.9246753,19.5987692 L60.9246753,26.2742589 L58.3493282,26.2742589 Z" id="Fill-3" fill="#4B4C4D"></path>
                            <path d="M66.5421152,26.615483 L69.2132048,26.615483 L69.2132048,15.7568583 L66.5421152,15.7568583 L66.5421152,26.615483 Z M69.6097249,12.5901386 C69.6097249,12.8169288 69.565581,13.0285491 69.4718722,13.227275 C69.3781633,13.4229669 69.2557997,13.5951454 69.1016835,13.7460861 C68.9444695,13.8924758 68.760924,14.0108011 68.5556939,14.1003036 C68.3450426,14.1875306 68.1212256,14.2315234 67.8826939,14.2315234 C67.6526813,14.2315234 67.4358344,14.1875306 67.2306042,14.1003036 C67.0245996,14.0108011 66.8449265,13.8924758 66.6946825,13.7460861 C66.5421152,13.5951454 66.4259472,13.4229669 66.3337873,13.227275 C66.2424018,13.0285491 66.1974835,12.8169288 66.1974835,12.5901386 C66.1974835,12.3565219 66.2424018,12.1388337 66.3337873,11.9385908 C66.4259472,11.7300045 66.5421152,11.553275 66.6946825,11.4038513 C66.8449265,11.2559446 67.0245996,11.1368608 67.2306042,11.0481168 C67.4358344,10.9593728 67.6526813,10.9191725 67.8826939,10.9191725 C68.1212256,10.9191725 68.3450426,10.9593728 68.5556939,11.0481168 C68.760924,11.1368608 68.9444695,11.2559446 69.1016835,11.4038513 C69.2557997,11.553275 69.3781633,11.7300045 69.4718722,11.9385908 C69.565581,12.1388337 69.6097249,12.3565219 69.6097249,12.5901386 L69.6097249,12.5901386 Z" id="Fill-5" fill="#4B4C4D"></path>
                            <path d="M75.8431083,24.5679101 C76.3802948,24.5679101 76.8378424,24.4584864 77.2134972,24.2328936 C77.5921573,24.0117977 77.9475268,23.6955181 78.2848649,23.279558 L78.2848649,18.4709094 C77.9911028,18.115657 77.6717962,17.8623335 77.3239398,17.7169349 C76.9790886,17.5692878 76.6049364,17.4973379 76.203737,17.4973379 C75.8138073,17.4973379 75.461443,17.5692878 75.1443903,17.7169349 C74.8250837,17.8623335 74.5576174,18.0834294 74.3344784,18.3802226 C74.1143447,18.6807631 73.947554,19.054003 73.8265931,19.5119338 C73.7108914,19.9683657 73.6477814,20.5057412 73.6477814,21.1278077 C73.6477814,21.7558699 73.7003731,22.2857506 73.8002972,22.7204477 C73.9032267,23.1611405 74.0482295,23.5126456 74.2345543,23.7877039 C74.4223817,24.0642611 74.6545364,24.2636222 74.9272618,24.3850375 C75.2007385,24.504954 75.5057703,24.5679101 75.8431083,24.5679101 L75.8431083,24.5679101 Z M79.2916199,26.4603412 C78.9542818,26.4603412 78.7371533,26.3066983 78.6312186,25.9889197 L78.4170954,24.9546406 C78.1939564,25.2034671 77.9618017,25.4343063 77.7153721,25.6351663 C77.4719478,25.8352768 77.2074868,26.0099051 76.9287509,26.1560532 C76.6440045,26.3066983 76.3359675,26.4168715 76.0136556,26.5000635 C75.6905925,26.5780092 75.3382282,26.615483 74.9595681,26.615483 C74.3727952,26.615483 73.8341062,26.4970656 73.3442523,26.2542348 C72.8551496,26.0099051 72.4329136,25.6524043 72.0805493,25.1914755 C71.7281851,24.7260499 71.4554597,24.1549479 71.264627,23.4684264 C71.0707891,22.7864017 70.9746215,22.0061955 70.9746215,21.1278077 C70.9746215,20.3318624 71.0828101,19.5936269 71.2999386,18.9131012 C71.5170671,18.2280786 71.8266067,17.6337428 72.2330652,17.1345907 C72.6350159,16.6294428 73.1256211,16.235967 73.6891034,15.9534139 C74.2555909,15.6753577 74.8904476,15.5299591 75.599684,15.5299591 C76.2014831,15.5299591 76.7146276,15.6281406 77.137615,15.817009 C77.5658615,16.0118732 77.9475268,16.2666956 78.2848649,16.587472 L78.2848649,10.9191725 L80.8701216,10.9191725 L80.8701216,26.4603412 L79.2916199,26.4603412 Z" id="Fill-7" fill="#4B4C4D"></path>
                            <path d="M99.7872802,18.9356569 C99.7872802,18.0932503 99.6745166,17.3360736 99.4451798,16.6671708 C99.2219384,16.000551 98.8973621,15.4336197 98.4775463,14.9686599 C98.0607782,14.5052221 97.553342,14.1483218 96.953714,13.9048077 C96.3525622,13.6567277 95.6797903,13.5311657 94.9270171,13.5311657 L91.938782,13.5311657 L91.938782,24.3416701 L94.9270171,24.3416701 C95.6797903,24.3416701 96.3525622,24.2176301 96.953714,23.971072 C97.553342,23.7214701 98.0607782,23.3645697 98.4775463,22.9011319 C98.8973621,22.4414991 99.2219384,21.8707629 99.4451798,21.202621 C99.6745166,20.5344792 99.7872802,19.7780635 99.7872802,18.9356569 M102.708467,18.9356569 C102.708467,20.0619097 102.519511,21.0953226 102.147696,22.0374178 C101.772072,22.9779911 101.24254,23.7914804 100.565197,24.468754 C99.8840435,25.1513545 99.0642217,25.6771928 98.1057312,26.0515957 C97.1472407,26.4267596 96.0881773,26.615483 94.9270171,26.615483 L89.059501,26.615483 L89.059501,11.2603967 L94.9270171,11.2603967 C96.0881773,11.2603967 97.1472407,11.4491201 98.1057312,11.826567 C99.0642217,12.2070578 99.8840435,12.733657 100.565197,13.4094087 C101.24254,14.0859213 101.772072,14.8956057 102.147696,15.833896 C102.519511,16.7775131 102.708467,17.8101652 102.708467,18.9356569" id="Fill-8" fill="#4B4C4D"></path>
                            <path d="M108.485782,29.4664183 C108.409628,29.6505026 108.308089,29.7878113 108.185645,29.8836257 C108.066934,29.9764223 107.879535,30.0277245 107.630914,30.0277245 L105.712126,30.0277245 L107.713041,25.6957083 L103.390915,15.6963105 L105.638958,15.6963105 C105.849502,15.6963105 106.007037,15.7438405 106.117535,15.8419182 C106.23102,15.9422592 106.313147,16.0531624 106.368396,16.1814179 L108.652276,21.7801451 C108.727684,21.9649838 108.791892,22.1551037 108.850128,22.3474868 C108.90463,22.54666 108.9554,22.7428154 108.993477,22.9419885 C109.051713,22.733762 109.109948,22.5391156 109.178636,22.3474868 C109.244338,22.1603848 109.310786,21.9664927 109.39142,21.7703373 L111.537924,16.1814179 C111.59168,16.0395824 111.685006,15.9264159 111.81641,15.8306015 C111.94184,15.7423316 112.087429,15.6963105 112.244964,15.6963105 L114.310087,15.6963105 L108.485782,29.4664183 Z" id="Fill-9" fill="#4B4C4D"></path>
                            <path d="M115.33376,26.615483 L115.33376,15.8637664 L116.945666,15.8637664 C117.290254,15.8637664 117.517682,16.0192074 117.618761,16.3330933 L117.804839,17.1831382 C118.023078,16.9623668 118.255866,16.7551121 118.501672,16.5778942 C118.748244,16.3931671 119.007068,16.2392279 119.281972,16.1025599 C119.557643,15.9718993 119.847862,15.8705247 120.16182,15.8021907 C120.475778,15.7286002 120.8196,15.6963105 121.190224,15.6963105 C121.789041,15.6963105 122.318175,15.7946814 122.78222,15.9936761 C123.2455,16.1934216 123.631438,16.4720141 123.942333,16.8317062 C124.250931,17.195153 124.486782,17.6231791 124.646824,18.1232939 C124.806866,18.6211559 124.888036,19.1708316 124.888036,19.7738228 L124.888036,26.615483 L122.249258,26.615483 L122.249258,19.7738228 C122.249258,19.1152633 122.09381,18.6061375 121.782915,18.2464453 C121.475083,17.8875041 121.007975,17.7072825 120.389248,17.7072825 C119.932861,17.7072825 119.503274,17.8094081 119.107381,18.0091536 C118.707659,18.2141556 118.33091,18.4904953 117.971772,18.8396745 L117.971772,26.615483 L115.33376,26.615483 Z" id="Fill-10" fill="#4B4C4D"></path>
                            <path d="M130.484175,24.8108689 C130.745788,24.8108689 130.989565,24.7888151 131.210301,24.739384 C131.430295,24.6891925 131.639883,24.6161866 131.836837,24.516564 C132.034533,24.4215042 132.226284,24.2998278 132.409117,24.1591393 C132.591949,24.0146485 132.777754,23.8481039 132.960587,23.6511401 L132.960587,21.8297954 C132.214393,21.8297954 131.59306,21.8761846 131.090643,21.9742863 C130.591942,22.069346 130.188373,22.1910225 129.882909,22.3438785 C129.578188,22.4921717 129.363398,22.6663212 129.235564,22.8663269 C129.10773,23.0655721 129.044556,23.2823083 129.044556,23.515775 C129.044556,23.980427 129.176106,24.3135164 129.442179,24.5135221 C129.707509,24.7112463 130.056079,24.8108689 130.484175,24.8108689 L130.484175,24.8108689 Z M135.465984,26.4458965 L134.311762,26.4458965 C134.066499,26.4458965 133.880694,26.4093935 133.741712,26.3348667 C133.601986,26.2588189 133.500908,26.1090047 133.428073,25.8831428 L133.20139,25.1082158 C132.931601,25.3561316 132.669987,25.5759097 132.409117,25.7599454 C132.150476,25.9500649 131.880687,26.1044419 131.604952,26.236765 C131.32773,26.3614834 131.032672,26.4550222 130.724978,26.5189023 C130.411339,26.5827825 130.066485,26.615483 129.685955,26.615483 C129.235564,26.615483 128.820846,26.5531239 128.44329,26.4284055 C128.062761,26.3021661 127.732028,26.1196514 127.459266,25.8702147 C127.188733,25.6200174 126.973942,25.3127844 126.823069,24.9431921 C126.669222,24.5743603 126.594157,24.1454507 126.594157,23.654182 C126.594157,23.2450449 126.70118,22.8366682 126.910025,22.4328544 C127.124816,22.0351245 127.470414,21.6723765 127.965399,21.3484129 C128.457411,21.0259703 129.10773,20.7590425 129.926759,20.5468692 C130.742816,20.3339354 131.751366,20.2259475 132.960587,20.2259475 L132.960587,19.5856251 C132.960587,18.8502429 132.809713,18.3080222 132.513168,17.9543999 C132.21142,17.6000172 131.77292,17.4243468 131.19841,17.4243468 C130.785922,17.4243468 130.440325,17.4752988 130.16459,17.574161 C129.885882,17.6737836 129.646565,17.7840529 129.442179,17.9072503 C129.235564,18.0319687 129.049758,18.1414775 128.878818,18.2426211 C128.704161,18.3407227 128.511666,18.3939562 128.306537,18.3939562 C128.131137,18.3939562 127.984723,18.3422437 127.862835,18.2532678 C127.735001,18.1627709 127.636152,18.0479387 127.560344,17.9133341 L127.093601,17.0752874 C128.318429,15.9284867 129.792979,15.3550864 131.520968,15.3550864 C132.141557,15.3550864 132.698973,15.4592718 133.187269,15.6691638 C133.677795,15.8767742 134.090282,16.1665163 134.423989,16.5376295 C134.76364,16.9133056 135.019308,17.3513409 135.199168,17.8730288 C135.376054,18.3871119 135.465984,18.9529074 135.465984,19.5704155 L135.465984,26.4458965 Z" id="Fill-11" fill="#4B4C4D"></path>
                            <path d="M137.854553,26.615483 L137.854553,15.8637664 L139.460184,15.8637664 C139.803157,15.8637664 140.023912,16.0192074 140.130852,16.3330933 L140.304248,17.1335773 C140.492157,16.9195642 140.695343,16.7303316 140.906932,16.5546156 C141.11623,16.3796505 141.338512,16.2302168 141.575309,16.1025599 C141.814396,15.9764048 142.067997,15.8780339 142.342223,15.8051944 C142.619503,15.7331057 142.918172,15.6963105 143.243576,15.6963105 C143.932576,15.6963105 144.502415,15.8780339 144.946981,16.2429825 C145.391546,16.6101839 145.723061,17.1012876 145.940761,17.7072825 C146.114157,17.3505941 146.325746,17.0442174 146.58393,16.7919073 C146.839059,16.5335898 147.119395,16.3270859 147.42341,16.1671393 C147.731245,16.0056908 148.053594,15.8885468 148.399622,15.8119527 C148.742594,15.7346076 149.088622,15.6963105 149.437706,15.6963105 C150.041918,15.6963105 150.580438,15.7871722 151.046392,15.9688956 C151.514637,16.1483662 151.909552,16.4164457 152.230373,16.765625 C152.552721,17.1133024 152.794864,17.5413285 152.961386,18.0429451 C153.128671,18.5460636 153.20964,19.1220216 153.20964,19.7738228 L153.20964,26.615483 L150.580438,26.615483 L150.580438,19.7738228 C150.580438,19.0859773 150.425375,18.5708441 150.119831,18.2246685 C149.813524,17.878493 149.365903,17.7072825 148.77544,17.7072825 C148.506562,17.7072825 148.256016,17.7538398 148.026095,17.8447015 C147.793882,17.9325595 147.590695,18.0662238 147.418063,18.2366833 C147.244667,18.4063919 147.107173,18.6219068 147.008635,18.8787225 C146.90475,19.1400438 146.859683,19.4359075 146.859683,19.7738228 L146.859683,26.615483 L144.212913,26.615483 L144.212913,19.7738228 C144.212913,19.0536876 144.067016,18.5272905 143.774458,18.1998881 C143.475789,17.8702328 143.043445,17.7072825 142.467496,17.7072825 C142.088622,17.7072825 141.736483,17.8011479 141.404968,17.985875 C141.075745,18.1706021 140.769438,18.4244141 140.481463,18.7443073 L140.481463,26.615483 L137.854553,26.615483 Z" id="Fill-12" fill="#4B4C4D"></path>
                            <path d="M155.260931,26.615483 L157.930204,26.615483 L157.930204,15.7563908 L155.260931,15.7563908 L155.260931,26.615483 Z M158.328002,12.5884603 C158.328002,12.8182623 158.283888,13.0298621 158.190243,13.2240183 C158.096598,13.4242418 157.972769,13.5964037 157.817984,13.7427792 C157.660877,13.8937053 157.482874,14.0089855 157.273914,14.0969625 C157.062632,14.1856979 156.838967,14.2296864 156.60292,14.2296864 C156.371516,14.2296864 156.152495,14.1856979 155.949726,14.0969625 C155.747731,14.0089855 155.562763,13.8937053 155.414943,13.7427792 C155.260931,13.5964037 155.140973,13.4242418 155.051971,13.2240183 C154.961422,13.0298621 154.91576,12.8182623 154.91576,12.5884603 C154.91576,12.3578999 154.961422,12.1387158 155.051971,11.9339417 C155.140973,11.7314429 155.260931,11.5547305 155.414943,11.4053213 C155.562763,11.2574289 155.747731,11.1383566 155.949726,11.0496212 C156.152495,10.9608858 156.371516,10.9191725 156.60292,10.9191725 C156.838967,10.9191725 157.062632,10.9608858 157.273914,11.0496212 C157.482874,11.1383566 157.660877,11.2574289 157.817984,11.4053213 C157.972769,11.5547305 158.096598,11.7314429 158.190243,11.9339417 C158.283888,12.1387158 158.328002,12.3578999 158.328002,12.5884603 L158.328002,12.5884603 Z" id="Fill-13" fill="#4B4C4D"></path>
                            <path d="M168.106773,18.1762243 C168.028916,18.2792995 167.951823,18.3564151 167.877019,18.412152 C167.802979,18.4701796 167.6923,18.4969028 167.551853,18.4969028 C167.415222,18.4969028 167.286987,18.4564362 167.158752,18.3747396 C167.033571,18.2922794 166.878621,18.2014205 166.699245,18.0983452 C166.523685,17.9945065 166.313014,17.9036476 166.070284,17.8211874 C165.822974,17.7379637 165.518417,17.6959701 165.155085,17.6959701 C164.692525,17.6959701 164.287211,17.7822478 163.941436,17.9479317 C163.59566,18.1151427 163.303315,18.3564151 163.073562,18.6671678 C162.841518,18.9802111 162.671302,19.3604442 162.55757,19.8032859 C162.440021,20.2461277 162.385063,20.7515781 162.385063,21.3104749 C162.385063,21.8907503 162.447654,22.4160522 162.572836,22.8650022 C162.698017,23.3223508 162.87434,23.7041109 163.106384,24.0133366 C163.34377,24.3233258 163.631535,24.555436 163.962045,24.7142482 C164.296371,24.8722969 164.671915,24.9539936 165.092495,24.9539936 C165.513074,24.9539936 165.848163,24.9036012 166.109213,24.798999 C166.368735,24.6959237 166.586276,24.5829227 166.761836,24.4577054 C166.941211,24.3332516 167.096162,24.2217776 167.22745,24.1202295 C167.361027,24.0141001 167.504528,23.9652348 167.671691,23.9652348 C167.880073,23.9652348 168.044182,24.0454045 168.150281,24.2080343 L168.90595,25.1670157 C168.613606,25.5098363 168.297599,25.7938658 167.957929,26.024449 C167.614444,26.2557956 167.260272,26.4420945 166.896177,26.5764741 C166.529792,26.7192524 166.153484,26.8192735 165.763437,26.8719564 C165.372626,26.929984 164.984869,26.9567072 164.600165,26.9567072 C163.92617,26.9567072 163.291103,26.8314899 162.694964,26.5764741 C162.095772,26.3275665 161.576727,25.9603133 161.132485,25.4777685 C160.691297,24.9929331 160.336362,24.4019684 160.079892,23.7041109 C159.821133,23.0031993 159.692898,22.2053207 159.692898,21.3104749 C159.692898,20.5057246 159.805867,19.7643464 160.038674,19.0802323 C160.267664,18.3907735 160.60657,17.7990453 161.052339,17.298176 C161.502687,16.7995973 162.056844,16.4048573 162.716336,16.1231183 C163.378119,15.8367982 164.136841,15.6963105 164.997082,15.6963105 C165.810762,15.6963105 166.526739,15.8245819 167.143486,16.0887599 C167.757944,16.3521744 168.309811,16.7293534 168.798325,17.2202969 L168.106773,18.1762243 Z" id="Fill-14" fill="#4B4C4D"></path>
                            <path d="M177.059895,17.9920159 C176.987877,18.1064198 176.91356,18.1887906 176.835413,18.2345522 C176.754967,18.2826018 176.659198,18.3031945 176.535848,18.3031945 C176.407135,18.3031945 176.269994,18.267348 176.122893,18.1987056 C175.976559,18.1277752 175.811836,18.0454044 175.61417,17.9576947 C175.422632,17.8684596 175.204279,17.7891396 174.959111,17.7166838 C174.710879,17.6480414 174.423572,17.6121949 174.087998,17.6121949 C173.567016,17.6121949 173.157126,17.7220226 172.858327,17.9416782 C172.561827,18.1620964 172.409363,18.4481062 172.409363,18.8050464 C172.409363,19.0376677 172.480615,19.2344425 172.639208,19.3938453 C172.789374,19.5517227 172.995468,19.6935835 173.24983,19.8171398 C173.501127,19.9345945 173.788434,20.0489984 174.108685,20.1374708 C174.425871,20.2350954 174.755315,20.3395844 175.093954,20.454751 C175.425697,20.5691549 175.755141,20.6942365 176.078457,20.8414362 C176.395643,20.9848225 176.679885,21.1709195 176.937311,21.3943885 C177.188608,21.6178575 177.392404,21.8848 177.544868,22.1990294 C177.700397,22.5117335 177.777778,22.8869783 177.777778,23.3278148 C177.777778,23.8525474 177.676646,24.3360947 177.485108,24.7815073 C177.296635,25.2246318 177.014692,25.6059782 176.640811,25.9301227 C176.269994,26.251979 175.811836,26.5067184 175.267104,26.6859512 C174.722371,26.8644214 174.097192,26.9567072 173.393866,26.9567072 C173.01692,26.9567072 172.645338,26.9239114 172.286779,26.8522183 C171.92439,26.7866267 171.580389,26.6928155 171.24788,26.5768862 C170.915371,26.4533299 170.607378,26.3114691 170.329266,26.1490155 C170.052685,25.9857992 169.803687,25.8080918 169.588398,25.6143678 L170.195955,24.6137149 C170.274103,24.4932094 170.365275,24.4016863 170.472536,24.3376201 C170.580563,24.2720285 170.715405,24.2392327 170.880128,24.2392327 C171.041785,24.2392327 171.197314,24.2888077 171.340584,24.3795682 C171.489983,24.4733794 171.660835,24.5732922 171.852372,24.6793065 C172.046974,24.7830327 172.271456,24.8844708 172.531947,24.9767566 C172.789374,25.0690425 173.118052,25.1155667 173.52258,25.1155667 C173.833637,25.1155667 174.100257,25.0781948 174.327803,25.0019255 C174.552285,24.9294697 174.737694,24.8295569 174.884029,24.7075261 C175.031129,24.5893087 175.135326,24.4482105 175.204279,24.2888077 C175.273233,24.1294049 175.306177,23.9639006 175.306177,23.7953455 C175.306177,23.5398434 175.22803,23.3293402 175.075566,23.1668866 C174.923102,23.0029077 174.719306,22.8618095 174.468009,22.7397786 C174.213647,22.6215612 173.923276,22.5132589 173.599961,22.4194476 C173.274347,22.3195349 172.944902,22.2165714 172.603966,22.1036928 C172.268392,21.991577 171.933584,21.855055 171.613333,21.7040418 C171.286953,21.5492152 170.996582,21.3570166 170.745285,21.1236326 C170.493988,20.8894859 170.291724,20.6019507 170.13926,20.261027 C169.980667,19.9193406 169.905585,19.5113 169.905585,19.0285154 C169.905585,18.580052 169.995224,18.1544694 170.173737,17.7494796 C170.349952,17.3452524 170.613507,16.9928883 170.960573,16.6900992 C171.304575,16.3895983 171.735917,16.1478247 172.253835,15.9693545 C172.770986,15.7847829 173.367051,15.6963105 174.04586,15.6963105 C174.800518,15.6963105 175.485456,15.8183414 176.108337,16.0677419 C176.725087,16.3163798 177.242239,16.6443377 177.658258,17.0478022 L177.059895,17.9920159 Z" id="Fill-15" fill="#4B4C4D"></path>
                            <path d="M29.2319623,20.4734485 C29.4173132,22.4967025 29.3781333,24.5603303 29.0933259,26.5706343 C25.8037251,30.3200531 14.4506092,32.1749566 7.24377651,31.6447665 L7.24377651,31.6417195 C6.15502866,30.0755258 5.60048305,28.3463139 5.45958627,26.5348312 C14.6171235,28.2655666 24.4218818,25.4668334 29.2319623,20.4734485" id="Fill-17" fill="#EA5B25"></path>
                            <path d="M31.7900222,16.3425894 L31.7900222,16.3425894 C30.0860746,8.28260177 21.0806773,0.698677658 14.9041494,0 L14.9041494,0.000752074982 C14.4026783,0.318879792 13.9855386,0.716727458 13.6489657,1.1815098 C17.2473598,1.51467901 20.3887074,3.91831065 23.9976429,7.77795946 C26.8009117,10.7787386 28.6757812,15.5709604 29.1358395,20.6203918 C29.3210676,22.6186551 29.2819137,24.6560262 28.9980479,26.64 C31.8909188,23.4745164 32.5354523,19.8630523 31.7900222,16.3425894" id="Fill-16" fill="#F29100"></path>
                            <path d="M21.633493,22.1795692 L21.3276309,22.1061721 C19.7231966,21.4327344 18.094232,19.8732343 16.6730083,17.8710813 C21.472513,12.1241607 18.8140427,7.75892242 15.454926,6.86453662 C15.0825947,6.76422649 14.701807,6.7067996 14.3216302,6.69508432 C13.6780039,6.67525075 13.0361283,6.78643278 12.44,7.04235444 C13.3897852,6.59576825 14.4278767,6.24206152 15.4856929,6.18856808 C18,6.06142035 20.6323361,6.74768253 22.3088426,9.20113843 C24.4590759,12.5789203 24.027496,18.6670998 21.633493,22.1795692 Z" id="Fill-18" fill="#0069B3"></path>
                            <path d="M16,6.18234165 C15.1493027,6.93165786 13.8847252,8.04844116 13,9 C12.7888724,8.19175698 12.7095896,7.26552652 12.6252932,6.49147559 C12.637667,6.48492817 12.6438539,6.48056322 12.654681,6.47838075 C14,6.18234165 15,6.18234165 16,6.18234165 Z" id="Fill-19" fill="#A9AA00"></path>
                            <path d="M5.58879617,26.5750695 C5.285508,22.7141759 6.90076456,18.4792323 9.21305182,14.6963289 C9.01542043,12.917698 8.94700957,11.1405815 8.96221198,9.55427597 C5.16388868,13.0645922 0.600883929,19.8482253 0.0543571226,24.964534 C-0.230688152,27.6313445 0.576560066,29.8423289 3.15945031,30.8993611 C4.23958187,31.2832546 5.70129404,31.5316118 7.38876207,31.654276 L7.38876207,31.6512472 C6.28962749,30.0944719 5.73017863,28.3756588 5.58879617,26.5750695" id="Fill-21" fill="#A9AA00"></path>
                            <path d="M21.5360172,21.8485128 C19.9501222,21.1812332 18.3399803,19.6359934 16.9351788,17.6521486 C15.2538118,15.2821812 13.8634069,12.2779233 13.1579753,9.389877 C12.9511194,8.55615232 12.8048806,7.73442368 12.7230475,6.93593736 L12.7230475,6.93368811 C12.4896717,4.67993236 12.7904841,2.64360481 13.8323406,1.22957177 C14.1717964,0.766224778 14.5908122,0.369605753 15.0954496,0.0532102362 L15.0954496,0.0517107314 C13.2163193,-0.157470191 11.5955693,0.257892644 10.5211311,1.48223833 L10.5158271,1.48223833 C9.70052703,2.40818256 9.19285876,3.79447476 9.12239137,5.72058871 C8.99054916,6.70651312 8.89204636,8.11229889 8.87386123,9.72051781 C8.85870695,11.2919989 8.9269012,13.0516678 9.1239068,14.8120864 C9.87252807,21.4803844 12.5025528,28.1014479 19.7243234,23.9710619 C20.5418967,23.5009671 21.2511168,22.7887023 21.8383451,21.9219885 L21.5360172,21.8485128 Z" id="Fill-20" fill="#62B8E8"></path>
                        </g>
                    </g>
                </g>
            </g>
        </g>
    </g>
</svg>